<svg width="180" height="180" viewBox="0 0 180 180" fill="none" xmlns="http://www.w3.org/2000/svg">
<g clip-path="url(#clip0_877_2)">
<path d="M135 18H126V27H135V18Z" fill="none"/>
<path d="M153 36H144V45H153V36Z" fill="none"/>
<path d="M144 27H135V36H144V27Z" fill="none"/>
<path d="M117 9H108V18H117V9Z" fill="none"/>
<path d="M126 9H117V18H126V9Z" fill="none"/>
<path d="M117 18H108V27H117V18Z" fill="none"/>
<path d="M117 27H108V36H117V27Z" fill="none"/>
<path d="M117 36H108V45H117V36Z" fill="none"/>
<path d="M117 45H108V54H117V45Z" fill="none"/>
<path d="M126 45H117V54H126V45Z" fill="none"/>
<path d="M135 45H126V54H135V45Z" fill="none"/>
<path d="M144 45H135V54H144V45Z" fill="none"/>
<path d="M108 9H99V18H108V9Z" fill="none"/>
<path d="M99 9H90V18H99V9Z" fill="none"/>
<path d="M90 9H81V18H90V9Z" fill="none"/>
<path d="M72 9H63V18H72V9Z" fill="none"/>
<path d="M45 9H36V18H45V9Z" fill="none"/>
<path d="M45 18H36V27H45V18Z" fill="none"/>
<path d="M36 27H27V36H36V27Z" fill="none"/>
<path d="M36 36H27V45H36V36Z" fill="none"/>
<path d="M36 45H27V54H36V45Z" fill="none"/>
<path d="M36 72H27V81H36V72Z" fill="none"/>
<path d="M36 81H27V90H36V81Z" fill="none"/>
<path d="M36 90H27V99H36V90Z" fill="none"/>
<path d="M36 99H27V108H36V99Z" fill="none"/>
<path d="M36 108H27V117H36V108Z" fill="none"/>
<path d="M36 117H27V126H36V117Z" fill="none"/>
<path d="M36 126H27V135H36V126Z" fill="none"/>
<path d="M36 135H27V144H36V135Z" fill="none"/>
<path d="M36 153H27V162H36V153Z" fill="none"/>
<path d="M45 162H36V171H45V162Z" fill="none"/>
<path d="M45 153H36V162H45V153Z" fill="none"/>
<path d="M72 162H63V171H72V162Z" fill="none"/>
<path d="M63 9H54V18H63V9Z" fill="none"/>
<path d="M63 162H54V171H63V162Z" fill="none"/>
<path d="M54 9H45V18H54V9Z" fill="none"/>
<path d="M54 162H45V171H54V162Z" fill="none"/>
<path d="M90 162H81V171H90V162Z" fill="none"/>
<path d="M81 9H72V18H81V9Z" fill="none"/>
<path d="M81 162H72V171H81V162Z" fill="none"/>
<path d="M99 162H90V171H99V162Z" fill="none"/>
<path d="M108 162H99V171H108V162Z" fill="none"/>
<path d="M117 162H108V171H117V162Z" fill="none"/>
<path d="M126 162H117V171H126V162Z" fill="none"/>
<path d="M135 162H126V171H135V162Z" fill="none"/>
<path d="M144 162H135V171H144V162Z" fill="none"/>
<path d="M144 153H135V162H144V153Z" fill="none"/>
<path d="M153 153H144V162H153V153Z" fill="none"/>
<path d="M153 135H144V144H153V135Z" fill="none"/>
<path d="M36 144H27V153H36V144Z" fill="none"/>
<path d="M153 144H144V153H153V144Z" fill="none"/>
<path d="M153 126H144V135H153V126Z" fill="none"/>
<path d="M153 117H144V126H153V117Z" fill="none"/>
<path d="M153 108H144V117H153V108Z" fill="none"/>
<path d="M153 99H144V108H153V99Z" fill="none"/>
<path d="M153 90H144V99H153V90Z" fill="none"/>
<path d="M153 81H144V90H153V81Z" fill="none"/>
<path d="M153 72H144V81H153V72Z" fill="none"/>
<path d="M36 63H27V72H36V63Z" fill="none"/>
<path d="M153 63H144V72H153V63Z" fill="none"/>
<path d="M36 54H27V63H36V54Z" fill="none"/>
<path d="M153 54H144V63H153V54Z" fill="none"/>
<path d="M36 18H27V27H36V18Z" fill="none"/>
<path d="M153 45H144V54H153V45Z" fill="none"/>
    <style>
        path { fill: #000; }
        @media (prefers-color-scheme: dark) {
            path { fill: #FFF; }
        }
    </style>
</g>
<defs>
<clipPath id="clip0_877_2">
<rect width="126" height="162" fill="none" transform="translate(27 9)"/>
</clipPath>
</defs>
</svg>